<?xml version="1.0" encoding="utf-8"?>
<!-- Generator: Adobe Illustrator 25.3.1, SVG Export Plug-In . SVG Version: 6.00 Build 0)  -->
<svg version="1.1" id="Layer_1" xmlns="http://www.w3.org/2000/svg" xmlns:xlink="http://www.w3.org/1999/xlink" x="0px" y="0px"
	 viewBox="0 0 1000 200" style="enable-background:new 0 0 1000 200;" xml:space="preserve">
<style type="text/css">
	.st0{fill:#9FA7D4;}
	.st1{fill:#3E4DA1;}
	.st2{fill:#414DA1;}
</style>
<g>
	<g>
		<path class="st0" d="M138.49,155.22c0,1.4-0.76,2.7-1.96,3.42l-65.27,39.09c-0.03,0.03-0.1,0.03-0.14,0.07
			c-0.24,0.1-0.48,0.2-0.72,0.31c-0.07,0-0.17,0.03-0.24,0.07c-0.31,0.07-0.62,0.14-0.96,0.13l0-114.03l63.21-37.83
			c1.24-0.75,2.78-0.78,4.04-0.06c1.27,0.69,2.02,2.03,2.05,3.47L138.49,155.22z"/>
		<path class="st1" d="M69.2,198.31c-0.34,0-0.65-0.07-0.96-0.14c-0.1-0.03-0.17-0.03-0.24-0.07c-0.27-0.07-0.51-0.17-0.72-0.31
			c-0.07-0.03-0.1-0.03-0.14-0.07L1.88,158.62c-1.2-0.72-1.95-2.03-1.94-3.43l0-105.33c0-1.44,0.76-2.77,2.03-3.49
			c1.24-0.72,2.78-0.71,4.01,0.05L69.2,84.28L69.2,198.31z"/>
		<path class="st0" d="M69.48,64.96c0.14,0,0.27-0.02,0.39-0.05c0.03-0.01,0.07-0.02,0.07-0.02c0.14-0.04,0.23-0.08,0.33-0.14
			c0.02-0.01,0.04-0.01,0.04-0.01l26.68-15.99c0.49-0.29,0.8-0.83,0.8-1.4L97.76,2.49c0-0.59-0.32-1.13-0.83-1.42
			s-1.14-0.28-1.65,0.02L69.46,16.56L69.48,64.96z"/>
	</g>
	<g>
		<path class="st1" d="M372.68,60.48h-43.17v32.79h50.47v14.78h-68.73V1.49h68.23v14.93h-49.96v29.42h43.17V60.48z"/>
		<path class="st1" d="M440.78,51.99l24.19-50.5h20.21l-35.23,67.33v39.23h-18.34V68.82l-35.3-67.33h20.28L440.78,51.99z"/>
		<path class="st1" d="M560.73,80.61c0-4.69-1.63-8.3-4.87-10.83c-3.25-2.54-9.11-5.1-17.58-7.68c-8.47-2.59-15.21-5.47-20.21-8.64
			c-9.58-6.1-14.37-14.05-14.37-23.86c0-8.59,3.45-15.66,10.36-21.22c6.9-5.57,15.87-8.35,26.9-8.35c7.31,0,13.83,1.37,19.57,4.1
			c5.72,2.74,10.23,6.63,13.5,11.68c3.28,5.05,4.91,10.65,4.91,16.8h-18.2c0-5.56-1.72-9.92-5.16-13.06
			c-3.45-3.15-8.37-4.72-14.76-4.72c-5.97,0-10.6,1.29-13.9,3.88c-3.3,2.59-4.95,6.2-4.95,10.83c0,3.9,1.78,7.16,5.34,9.77
			c3.56,2.61,9.43,5.15,17.61,7.61c8.19,2.47,14.75,5.27,19.71,8.42c4.96,3.15,8.59,6.76,10.9,10.83s3.46,8.84,3.46,14.31
			c0,8.88-3.36,15.94-10.07,21.19c-6.72,5.24-15.82,7.87-27.33,7.87c-7.61,0-14.59-1.42-20.97-4.28
			c-6.38-2.86-11.34-6.79-14.87-11.82c-3.54-5.02-5.31-10.88-5.31-17.56h18.27c0,6.05,1.97,10.73,5.92,14.05
			c3.95,3.32,9.6,4.98,16.97,4.98c6.35,0,11.13-1.31,14.33-3.92C559.13,88.35,560.73,84.9,560.73,80.61z"/>
		<path class="st1" d="M681.32,16.42h-32.78v91.63h-18.12V16.42h-32.48V1.49h83.39V16.42z"/>
		<path class="st1" d="M787.33,57.55c0,10.44-1.78,19.6-5.34,27.48c-3.56,7.88-8.65,13.93-15.27,18.15
			c-6.62,4.22-14.24,6.33-22.85,6.33c-8.52,0-16.11-2.11-22.78-6.33c-6.67-4.22-11.81-10.24-15.45-18.04
			c-3.63-7.81-5.47-16.81-5.52-27.01v-6c0-10.39,1.82-19.57,5.45-27.52c3.63-7.95,8.76-14.04,15.37-18.26
			c6.62-4.22,14.21-6.33,22.78-6.33c8.57,0,16.16,2.09,22.78,6.26c6.62,4.17,11.73,10.18,15.34,18.01
			c3.61,7.83,5.44,16.94,5.49,27.33V57.55z M769.06,51.99c0-11.81-2.2-20.86-6.6-27.15c-4.41-6.3-10.65-9.44-18.74-9.44
			c-7.89,0-14.07,3.13-18.52,9.4c-4.45,6.27-6.73,15.14-6.82,26.6v6.15c0,11.71,2.25,20.76,6.75,27.15
			c4.49,6.39,10.74,9.59,18.73,9.59c8.08,0,14.31-3.12,18.66-9.37c4.36-6.25,6.53-15.37,6.53-27.37V51.99z"/>
		<path class="st1" d="M899.26,108.05H881l-46.86-75.6v75.6h-18.27V1.49h18.27l47,75.9V1.49h18.12V108.05z"/>
		<path class="st1" d="M992.64,60.48h-43.17v32.79h50.47v14.78H931.2V1.49h68.23v14.93h-49.96v29.42h43.17V60.48z"/>
		<g>
			<path class="st1" d="M239.35,62.02l-12.09,12.81v33.23h-18.53V1.49h18.53v49.99l10.26-12.66l31.21-37.33h22.42L251.51,48.7
				l41.9,59.35h-21.98L239.35,62.02z"/>
		</g>
	</g>
	<path class="st2" d="M231.98,179.56h-17.83v14.58h20.71v4.44h-26.13v-41.14h25.85v4.44h-20.43v13.25h17.83V179.56z"/>
	<path class="st2" d="M261.87,198.58v-41.14h11.61c3.58,0,6.74,0.79,9.49,2.37c2.75,1.58,4.87,3.83,6.37,6.75
		c1.5,2.92,2.26,6.27,2.27,10.06v2.63c0,3.88-0.75,7.28-2.25,10.2c-1.5,2.92-3.64,5.16-6.41,6.72c-2.78,1.56-6.01,2.36-9.71,2.4
		H261.87z M267.29,161.88v32.27H273c4.18,0,7.44-1.3,9.76-3.9c2.33-2.6,3.49-6.31,3.49-11.11v-2.4c0-4.67-1.1-8.31-3.29-10.9
		c-2.19-2.59-5.31-3.91-9.34-3.94H267.29z"/>
	<path class="st2" d="M349.03,157.44v27.97c-0.02,3.88-1.24,7.05-3.66,9.52c-2.42,2.47-5.7,3.85-9.85,4.15l-1.44,0.06
		c-4.5,0-8.09-1.21-10.77-3.64c-2.67-2.43-4.03-5.77-4.07-10.03v-28.03h5.37v27.86c0,2.98,0.82,5.29,2.46,6.94
		c1.64,1.65,3.97,2.47,7.01,2.47c3.07,0,5.42-0.82,7.05-2.46c1.63-1.64,2.44-3.95,2.44-6.92v-27.89H349.03z"/>
	<path class="st1" d="M408.1,185.52c-0.51,4.35-2.11,7.71-4.82,10.07c-2.7,2.36-6.3,3.55-10.78,3.55c-4.86,0-8.75-1.74-11.68-5.23
		c-2.93-3.48-4.39-8.15-4.39-13.99v-3.96c0-3.82,0.68-7.19,2.05-10.09c1.37-2.9,3.3-5.13,5.81-6.68c2.51-1.55,5.41-2.33,8.7-2.33
		c4.37,0,7.87,1.22,10.51,3.66c2.64,2.44,4.17,5.82,4.61,10.13h-5.45c-0.47-3.29-1.49-5.67-3.07-7.14c-1.57-1.47-3.77-2.21-6.6-2.21
		c-3.47,0-6.18,1.28-8.15,3.85c-1.97,2.56-2.95,6.21-2.95,10.94v3.99c0,4.47,0.93,8.02,2.8,10.66c1.86,2.64,4.47,3.96,7.83,3.96
		c3.01,0,5.33-0.68,6.94-2.05c1.61-1.36,2.68-3.74,3.21-7.13H408.1z"/>
	<path class="st2" d="M458.47,187.81h-17.24l-3.87,10.77h-5.59l15.71-41.14h4.75l15.74,41.14h-5.57L458.47,187.81z M442.88,183.38
		h13.99l-7.01-19.24L442.88,183.38z"/>
	<path class="st2" d="M518.54,161.88h-13.22v36.7h-5.4v-36.7h-13.19v-4.44h31.81V161.88z"/>
	<path class="st2" d="M550.71,198.58h-5.42v-41.14h5.42V198.58z"/>
	<path class="st2" d="M612.53,179.34c0,4.03-0.68,7.55-2.03,10.55c-1.36,3-3.28,5.3-5.76,6.88c-2.49,1.58-5.39,2.37-8.7,2.37
		c-3.24,0-6.11-0.8-8.62-2.39c-2.51-1.59-4.45-3.86-5.83-6.81c-1.38-2.95-2.1-6.36-2.13-10.24v-2.97c0-3.96,0.69-7.45,2.06-10.48
		c1.37-3.03,3.32-5.35,5.83-6.96c2.51-1.61,5.39-2.42,8.63-2.42c3.3,0,6.2,0.8,8.72,2.39c2.51,1.59,4.45,3.9,5.81,6.92
		c1.36,3.02,2.03,6.54,2.03,10.55V179.34z M607.13,176.68c0-4.88-0.98-8.62-2.94-11.23c-1.96-2.61-4.7-3.91-8.22-3.91
		c-3.43,0-6.13,1.3-8.1,3.91c-1.97,2.61-2.98,6.23-3.04,10.86v3.02c0,4.73,0.99,8.44,2.98,11.15c1.99,2.7,4.72,4.05,8.21,4.05
		c3.5,0,6.22-1.28,8.14-3.83s2.91-6.21,2.97-10.98V176.68z"/>
	<path class="st2" d="M672.53,198.58h-5.45l-20.71-31.7v31.7h-5.45v-41.14h5.45l20.77,31.84v-31.84h5.4V198.58z"/>
	<path class="st2" d="M767.37,193.18c-1.39,2-3.34,3.49-5.83,4.48c-2.5,0.99-5.4,1.48-8.72,1.48c-3.35,0-6.33-0.79-8.93-2.36
		c-2.6-1.57-4.61-3.81-6.03-6.71c-1.42-2.9-2.15-6.26-2.19-10.09v-3.59c0-6.2,1.45-11,4.34-14.41c2.89-3.41,6.96-5.11,12.19-5.11
		c4.29,0,7.75,1.1,10.37,3.29c2.62,2.19,4.22,5.31,4.8,9.34h-5.42c-1.02-5.46-4.26-8.19-9.72-8.19c-3.64,0-6.39,1.28-8.26,3.83
		c-1.87,2.55-2.82,6.25-2.84,11.1v3.36c0,4.62,1.05,8.29,3.16,11.01c2.11,2.72,4.96,4.09,8.56,4.09c2.03,0,3.81-0.22,5.34-0.68
		c1.53-0.45,2.79-1.21,3.79-2.28v-9.22h-9.52v-4.44h14.92V193.18z"/>
	<path class="st2" d="M811.75,181.94h-9.66v16.64h-5.45v-41.14h13.62c4.63,0,8.2,1.06,10.69,3.16c2.5,2.11,3.74,5.18,3.74,9.21
		c0,2.56-0.69,4.79-2.08,6.7c-1.38,1.9-3.31,3.32-5.78,4.27l9.66,17.46v0.34h-5.82L811.75,181.94z M802.09,177.5h8.34
		c2.69,0,4.84-0.7,6.43-2.09c1.59-1.4,2.39-3.26,2.39-5.61c0-2.55-0.76-4.5-2.27-5.86c-1.52-1.36-3.71-2.05-6.57-2.07h-8.31V177.5z"
		/>
	<path class="st2" d="M884.19,179.34c0,4.03-0.68,7.55-2.03,10.55c-1.36,3-3.28,5.3-5.76,6.88c-2.49,1.58-5.39,2.37-8.7,2.37
		c-3.24,0-6.11-0.8-8.62-2.39c-2.51-1.59-4.45-3.86-5.83-6.81c-1.38-2.95-2.1-6.36-2.13-10.24v-2.97c0-3.96,0.69-7.45,2.06-10.48
		c1.37-3.03,3.32-5.35,5.83-6.96c2.51-1.61,5.39-2.42,8.63-2.42c3.3,0,6.2,0.8,8.72,2.39c2.51,1.59,4.45,3.9,5.81,6.92
		c1.36,3.02,2.03,6.54,2.03,10.55V179.34z M878.79,176.68c0-4.88-0.98-8.62-2.94-11.23c-1.96-2.61-4.7-3.91-8.22-3.91
		c-3.43,0-6.13,1.3-8.1,3.91c-1.97,2.61-2.98,6.23-3.04,10.86v3.02c0,4.73,0.99,8.44,2.98,11.15c1.99,2.7,4.72,4.05,8.21,4.05
		c3.5,0,6.22-1.28,8.14-3.83s2.91-6.21,2.97-10.98V176.68z"/>
	<path class="st2" d="M941.54,157.44v27.97c-0.02,3.88-1.24,7.05-3.66,9.52c-2.42,2.47-5.7,3.85-9.85,4.15l-1.44,0.06
		c-4.5,0-8.09-1.21-10.77-3.64c-2.67-2.43-4.03-5.77-4.07-10.03v-28.03h5.37v27.86c0,2.98,0.82,5.29,2.46,6.94
		c1.64,1.65,3.97,2.47,7.01,2.47c3.07,0,5.42-0.82,7.05-2.46c1.63-1.64,2.44-3.95,2.44-6.92v-27.89H941.54z"/>
	<path class="st2" d="M975.78,182.47v16.1h-5.42v-41.14h15.17c4.5,0,8.03,1.15,10.58,3.45c2.55,2.3,3.83,5.34,3.83,9.13
		c0,3.99-1.25,7.07-3.74,9.23c-2.5,2.16-6.07,3.24-10.72,3.24H975.78z M975.78,178.04h9.75c2.9,0,5.12-0.68,6.67-2.05
		c1.54-1.37,2.32-3.34,2.32-5.93c0-2.45-0.77-4.42-2.32-5.89c-1.54-1.47-3.66-2.24-6.36-2.29h-10.06V178.04z"/>
</g>
</svg>
